<svg xmlns="http://www.w3.org/2000/svg" xmlns:xlink="http://www.w3.org/1999/xlink" width="1080" zoomAndPan="magnify" viewBox="0 0 810 809.999993" height="1080" preserveAspectRatio="xMidYMid meet" version="1.0"><defs><clipPath id="0d2071cd79"><path d="M 532 234 L 796.734375 234 L 796.734375 577 L 532 577 Z M 532 234 " clip-rule="nonzero"/></clipPath><clipPath id="6f53e26000"><path d="M 12.984375 234 L 278 234 L 278 577 L 12.984375 577 Z M 12.984375 234 " clip-rule="nonzero"/></clipPath><clipPath id="05e6fe688a"><path d="M 14 135.488281 L 796 135.488281 L 796 435 L 14 435 Z M 14 135.488281 " clip-rule="nonzero"/></clipPath><clipPath id="cf5c607848"><path d="M 14 438 L 796 438 L 796 674.738281 L 14 674.738281 Z M 14 438 " clip-rule="nonzero"/></clipPath></defs><g clip-path="url(#0d2071cd79)"><path fill="#241d19" d="M 797.003906 234.867188 L 797.003906 576.109375 L 532.691406 409.015625 Z M 797.003906 234.867188 " fill-opacity="1" fill-rule="nonzero"/></g><g clip-path="url(#6f53e26000)"><path fill="#241d19" d="M 277.296875 409.015625 L 12.984375 576.109375 L 12.984375 234.867188 Z M 277.296875 409.015625 " fill-opacity="1" fill-rule="nonzero"/></g><g clip-path="url(#05e6fe688a)"><path fill="#241d19" d="M 795.535156 177.191406 C 791.859375 153.71875 772.453125 135.492188 748.003906 135.492188 L 61.984375 135.492188 C 37.535156 135.492188 18.128906 153.71875 14.453125 177.191406 L 404.996094 434.496094 Z M 795.535156 177.191406 " fill-opacity="1" fill-rule="nonzero"/></g><g clip-path="url(#cf5c607848)"><path fill="#241d19" d="M 418.46875 484.28125 C 414.355469 486.976562 409.699219 488.300781 404.996094 488.300781 C 400.289062 488.300781 395.636719 486.976562 391.519531 484.28125 L 322.183594 438.5625 L 14.554688 633.148438 C 18.324219 656.421875 37.632812 674.503906 61.984375 674.503906 L 748.003906 674.503906 C 772.355469 674.503906 791.664062 656.421875 795.4375 633.148438 L 487.808594 438.613281 Z M 418.46875 484.28125 " fill-opacity="1" fill-rule="nonzero"/></g></svg>