<svg xmlns="http://www.w3.org/2000/svg" xmlns:xlink="http://www.w3.org/1999/xlink" width="1080" zoomAndPan="magnify" viewBox="0 0 810 809.999993" height="1080" preserveAspectRatio="xMidYMid meet" version="1.0"><defs><clipPath id="37be28d32f"><path d="M 41 22.824219 L 769 22.824219 L 769 787.074219 L 41 787.074219 Z M 41 22.824219 " clip-rule="nonzero"/></clipPath></defs><g clip-path="url(#37be28d32f)"><path fill="#241d19" d="M 405 22.824219 C 284.378906 22.824219 186.613281 120.589844 186.613281 241.210938 C 186.613281 397.207031 405 641.582031 405 641.582031 C 405 641.582031 623.382812 397.207031 623.382812 241.210938 C 623.382812 120.589844 525.621094 22.824219 405 22.824219 Z M 405 163.226562 C 448.09375 163.226562 482.984375 198.117188 482.984375 241.210938 C 482.984375 284.269531 448.058594 319.195312 405 319.195312 C 361.941406 319.195312 327.015625 284.304688 327.015625 241.210938 C 327.015625 198.117188 361.90625 163.226562 405 163.226562 Z M 142.964844 532.386719 L 41.027344 787.167969 L 768.972656 787.167969 L 667.03125 532.386719 L 580.160156 532.386719 C 562.507812 558.996094 544.785156 583.636719 528.480469 605.183594 L 617.839844 605.183594 L 661.484375 714.375 L 148.511719 714.375 L 192.160156 605.183594 L 281.519531 605.183594 C 265.210938 583.636719 247.488281 558.996094 229.835938 532.386719 Z M 142.964844 532.386719 " fill-opacity="1" fill-rule="nonzero"/></g></svg>