<svg xmlns="http://www.w3.org/2000/svg" xmlns:xlink="http://www.w3.org/1999/xlink" width="1080" zoomAndPan="magnify" viewBox="0 0 810 809.999993" height="1080" preserveAspectRatio="xMidYMid meet" version="1.0"><defs><clipPath id="9cea8c505c"><path d="M 332 731 L 445 731 L 445 786.648438 L 332 786.648438 Z M 332 731 " clip-rule="nonzero"/></clipPath><clipPath id="86695aa3b5"><path d="M 379 23.148438 L 398 23.148438 L 398 98 L 379 98 Z M 379 23.148438 " clip-rule="nonzero"/></clipPath><clipPath id="77ce554263"><path d="M 655 355 L 729.148438 355 L 729.148438 374 L 655 374 Z M 655 355 " clip-rule="nonzero"/></clipPath><clipPath id="6409ebd397"><path d="M 47.398438 355 L 122 355 L 122 374 L 47.398438 374 Z M 47.398438 355 " clip-rule="nonzero"/></clipPath></defs><path fill="#000000" d="M 354.066406 223.917969 C 363.785156 223.917969 372.8125 227.019531 380.207031 232.285156 C 387.789062 237.691406 393.636719 245.371094 396.722656 254.320312 L 396.726562 254.316406 C 397.085938 255.355469 397.242188 256.414062 397.214844 257.453125 L 397.214844 471.304688 C 397.214844 473.050781 396.714844 474.679688 395.847656 476.058594 C 391.796875 483.484375 385.828125 489.710938 378.617188 494.058594 C 371.441406 498.390625 363.035156 500.886719 354.066406 500.886719 C 344.867188 500.886719 336.226562 498.222656 328.882812 493.628906 C 322.730469 489.78125 317.527344 484.582031 313.695312 478.453125 C 303.375 476.554688 294.21875 471.328125 287.382812 463.9375 C 279.546875 455.460938 274.753906 444.128906 274.753906 431.691406 C 274.753906 430.277344 274.828125 428.800781 274.972656 427.28125 C 270.324219 423.472656 266.410156 418.800781 263.46875 413.503906 C 259.65625 406.640625 257.488281 398.78125 257.488281 390.464844 C 257.488281 384.703125 258.527344 379.15625 260.425781 374.011719 C 261.554688 370.964844 262.988281 368.0625 264.6875 365.335938 C 263.015625 362.640625 261.609375 359.761719 260.5 356.742188 C 258.613281 351.613281 257.582031 346.089844 257.582031 340.359375 C 257.582031 334.199219 258.761719 328.296875 260.910156 322.882812 C 262.238281 319.519531 263.953125 316.335938 265.992188 313.386719 C 264.636719 310.945312 263.496094 308.375 262.589844 305.707031 C 260.953125 300.878906 260.058594 295.734375 260.058594 290.425781 C 260.058594 277.316406 265.386719 265.4375 273.996094 256.832031 L 280.320312 263.117188 L 273.996094 256.796875 L 274.164062 256.628906 C 282.761719 248.121094 294.589844 242.863281 307.644531 242.863281 C 310.503906 242.863281 313.316406 243.121094 316.042969 243.605469 L 315.75 245.226562 L 315.753906 245.222656 L 316.042969 243.605469 C 316.269531 243.644531 316.496094 243.695312 316.714844 243.75 C 320.113281 238.742188 324.5 234.457031 329.59375 231.160156 C 336.675781 226.582031 345.082031 223.917969 354.066406 223.917969 Z M 369.867188 246.8125 C 365.433594 243.65625 359.976562 241.796875 354.066406 241.796875 C 348.585938 241.796875 343.519531 243.382812 339.304688 246.105469 C 335.027344 248.871094 331.570312 252.808594 329.382812 257.46875 C 327.609375 261.988281 322.53125 264.273438 317.957031 262.578125 L 317.960938 262.566406 C 316.484375 262.023438 315.015625 261.597656 313.574219 261.300781 C 313.347656 261.277344 313.125 261.246094 312.894531 261.203125 C 311.195312 260.902344 309.4375 260.742188 307.644531 260.742188 C 299.46875 260.742188 292.0625 264.042969 286.695312 269.386719 L 286.644531 269.433594 L 286.625 269.417969 C 281.261719 274.785156 277.945312 282.214844 277.945312 290.425781 C 277.945312 293.808594 278.492188 297.023438 279.496094 299.980469 C 280.488281 302.902344 281.914062 305.609375 283.6875 308.015625 C 286.714844 311.433594 286.695312 316.660156 283.507812 320.054688 L 276.988281 313.9375 L 283.484375 320.050781 C 280.96875 322.730469 278.933594 325.914062 277.539062 329.445312 C 276.203125 332.8125 275.46875 336.496094 275.46875 340.359375 C 275.46875 343.984375 276.105469 347.433594 277.269531 350.597656 C 278.425781 353.746094 280.101562 356.648438 282.1875 359.1875 C 285.316406 362.46875 285.515625 367.648438 282.503906 371.167969 L 282.488281 371.152344 C 280.230469 373.78125 278.425781 376.832031 277.195312 380.15625 C 276.019531 383.347656 275.371094 386.820312 275.371094 390.464844 C 275.371094 395.726562 276.707031 400.628906 279.046875 404.84375 C 281.421875 409.121094 284.839844 412.761719 288.949219 415.417969 C 292.339844 417.285156 294.238281 421.226562 293.355469 425.1875 L 293.320312 425.183594 C 293.136719 426.015625 292.980469 426.914062 292.859375 427.882812 L 292.820312 428.425781 L 292.804688 428.421875 C 292.695312 429.394531 292.640625 430.488281 292.640625 431.691406 C 292.640625 439.480469 295.628906 446.566406 300.519531 451.855469 C 305.363281 457.09375 312.074219 460.582031 319.589844 461.261719 C 322.796875 461.367188 325.839844 463.199219 327.34375 466.285156 L 319.300781 470.195312 L 327.335938 466.320312 C 329.789062 471.363281 333.617188 475.605469 338.3125 478.542969 C 342.832031 481.371094 348.230469 483.007812 354.066406 483.007812 C 359.6875 483.007812 364.9375 481.453125 369.398438 478.765625 C 373.4375 476.328125 376.847656 472.960938 379.328125 468.972656 L 379.328125 258.820312 C 377.371094 253.960938 374.058594 249.800781 369.867188 246.8125 Z M 369.867188 246.8125 " fill-opacity="1" fill-rule="nonzero"/><path fill="#000000" d="M 337.582031 258.726562 C 332.757812 259.730469 329.664062 264.453125 330.664062 269.273438 C 331.664062 274.09375 336.394531 277.1875 341.214844 276.1875 C 341.605469 276.105469 341.988281 276.042969 342.351562 276.007812 C 342.585938 275.984375 342.976562 275.96875 343.511719 275.96875 C 346.570312 275.96875 349.347656 277.210938 351.355469 279.21875 C 351.472656 279.339844 351.59375 279.453125 351.71875 279.5625 C 353.507812 281.515625 354.605469 284.148438 354.605469 287.058594 C 354.605469 291.992188 358.609375 295.996094 363.546875 295.996094 C 368.484375 295.996094 372.488281 291.992188 372.488281 287.058594 C 372.488281 279.382812 369.472656 272.386719 364.554688 267.183594 C 364.382812 266.976562 364.195312 266.773438 364 266.578125 C 358.757812 261.335938 351.511719 258.09375 343.511719 258.09375 C 342.660156 258.09375 341.667969 258.152344 340.53125 258.269531 C 339.527344 258.371094 338.539062 258.53125 337.582031 258.726562 Z M 337.582031 258.726562 " fill-opacity="1" fill-rule="nonzero"/><path fill="#000000" d="M 325.800781 332 C 330.621094 333.003906 335.347656 329.90625 336.351562 325.085938 C 337.351562 320.269531 334.253906 315.542969 329.433594 314.542969 C 328.472656 314.34375 327.488281 314.1875 326.480469 314.085938 C 325.347656 313.96875 324.351562 313.90625 323.503906 313.90625 C 315.546875 313.90625 308.308594 317.148438 303.046875 322.390625 L 303.03125 322.410156 L 303.027344 322.410156 L 303.011719 322.394531 C 302.816406 322.589844 302.632812 322.796875 302.457031 323.003906 C 297.539062 328.207031 294.523438 335.203125 294.523438 342.875 C 294.523438 347.808594 298.527344 351.8125 303.46875 351.8125 C 308.40625 351.8125 312.410156 347.808594 312.410156 342.875 C 312.410156 339.964844 313.503906 337.332031 315.296875 335.378906 C 315.421875 335.265625 315.542969 335.152344 315.660156 335.03125 L 309.335938 328.710938 L 315.660156 334.996094 C 317.644531 333.011719 320.421875 331.785156 323.503906 331.785156 C 324.039062 331.785156 324.429688 331.796875 324.664062 331.820312 C 325.027344 331.859375 325.410156 331.921875 325.800781 332 Z M 325.800781 332 " fill-opacity="1" fill-rule="nonzero"/><path fill="#000000" d="M 306.957031 412.371094 C 311.78125 413.371094 316.507812 410.277344 317.507812 405.457031 C 318.511719 400.636719 315.414062 395.914062 310.59375 394.914062 C 309.632812 394.714844 308.644531 394.558594 307.640625 394.457031 C 306.503906 394.335938 305.511719 394.277344 304.664062 394.277344 C 296.695312 394.277344 289.449219 397.527344 284.1875 402.78125 L 284.171875 402.761719 L 284.171875 402.765625 C 278.925781 408.003906 275.683594 415.246094 275.683594 423.242188 C 275.683594 428.179688 279.6875 432.183594 284.625 432.183594 C 289.5625 432.183594 293.570312 428.179688 293.570312 423.242188 C 293.570312 420.183594 294.8125 417.410156 296.820312 415.402344 L 290.496094 409.082031 L 296.820312 415.367188 C 298.800781 413.382812 301.578125 412.15625 304.664062 412.15625 C 305.195312 412.15625 305.589844 412.167969 305.824219 412.191406 C 306.1875 412.226562 306.570312 412.289062 306.957031 412.371094 Z M 306.957031 412.371094 " fill-opacity="1" fill-rule="nonzero"/><path fill="#000000" d="M 341.632812 459.324219 C 346.453125 460.324219 351.179688 457.230469 352.183594 452.410156 C 353.183594 447.589844 350.085938 442.867188 345.265625 441.867188 C 344.304688 441.667969 343.320312 441.511719 342.3125 441.40625 C 341.179688 441.289062 340.183594 441.230469 339.335938 441.230469 C 331.367188 441.230469 324.121094 444.480469 318.863281 449.734375 L 318.84375 449.714844 L 318.84375 449.71875 C 313.601562 454.957031 310.355469 462.199219 310.355469 470.195312 C 310.355469 475.132812 314.359375 479.136719 319.300781 479.136719 C 324.238281 479.136719 328.242188 475.132812 328.242188 470.195312 C 328.242188 467.136719 329.484375 464.363281 331.492188 462.355469 L 325.167969 456.035156 L 331.492188 462.320312 C 333.476562 460.335938 336.253906 459.109375 339.335938 459.109375 C 339.871094 459.109375 340.261719 459.121094 340.496094 459.144531 C 340.859375 459.179688 341.242188 459.242188 341.632812 459.324219 Z M 341.632812 459.324219 " fill-opacity="1" fill-rule="nonzero"/><path fill="#000000" d="M 357.113281 396.332031 C 357.363281 401.25 361.554688 405.03125 366.472656 404.78125 C 371.394531 404.53125 375.179688 400.339844 374.929688 395.425781 C 374.875 394.4375 374.765625 393.433594 374.605469 392.425781 C 374.429688 391.332031 374.226562 390.347656 373.996094 389.492188 C 371.933594 381.792969 366.914062 375.636719 360.46875 371.921875 C 354.046875 368.214844 346.21875 366.949219 338.523438 369.011719 C 333.757812 370.285156 330.929688 375.179688 332.199219 379.941406 C 333.472656 384.703125 338.371094 387.53125 343.132812 386.261719 C 346.125 385.460938 349.144531 385.9375 351.597656 387.351562 C 354.035156 388.757812 355.945312 391.121094 356.742188 394.101562 C 356.867188 394.578125 356.953125 394.949219 356.996094 395.21875 C 357.050781 395.566406 357.09375 395.941406 357.113281 396.332031 Z M 357.113281 396.332031 " fill-opacity="1" fill-rule="nonzero"/><path fill="#000000" d="M 435.332031 276.1875 C 440.152344 277.1875 444.878906 274.09375 445.878906 269.273438 C 446.882812 264.453125 443.785156 259.730469 438.964844 258.726562 C 438.003906 258.53125 437.019531 258.371094 436.011719 258.269531 C 434.878906 258.152344 433.882812 258.09375 433.035156 258.09375 C 425.035156 258.09375 417.789062 261.335938 412.542969 266.578125 C 412.347656 266.773438 412.164062 266.976562 411.988281 267.183594 C 407.070312 272.386719 404.054688 279.382812 404.054688 287.058594 C 404.054688 291.992188 408.058594 295.996094 412.996094 295.996094 C 417.933594 295.996094 421.941406 291.992188 421.941406 287.058594 C 421.941406 284.148438 423.035156 281.515625 424.824219 279.5625 C 424.949219 279.453125 425.070312 279.339844 425.191406 279.21875 C 427.195312 277.210938 429.972656 275.96875 433.035156 275.96875 C 433.566406 275.96875 433.960938 275.984375 434.195312 276.007812 C 434.558594 276.042969 434.941406 276.105469 435.332031 276.1875 Z M 435.332031 276.1875 " fill-opacity="1" fill-rule="nonzero"/><path fill="#000000" d="M 447.109375 314.542969 C 442.289062 315.542969 439.191406 320.269531 440.195312 325.085938 C 441.195312 329.90625 445.921875 333.003906 450.746094 332 C 451.132812 331.921875 451.515625 331.859375 451.878906 331.820312 C 452.113281 331.796875 452.507812 331.785156 453.039062 331.785156 C 456.125 331.785156 458.902344 333.011719 460.882812 334.996094 L 467.207031 328.710938 L 460.882812 335.03125 C 461.003906 335.152344 461.125 335.265625 461.25 335.378906 C 463.042969 337.332031 464.132812 339.964844 464.132812 342.875 C 464.132812 347.808594 468.140625 351.8125 473.078125 351.8125 C 478.015625 351.8125 482.019531 347.808594 482.019531 342.875 C 482.019531 335.203125 479.003906 328.207031 474.085938 323.003906 C 473.914062 322.792969 473.730469 322.589844 473.535156 322.394531 L 473.515625 322.410156 L 473.496094 322.390625 C 468.238281 317.148438 461 313.90625 453.039062 313.90625 C 452.191406 313.90625 451.199219 313.96875 450.0625 314.085938 C 449.058594 314.1875 448.070312 314.34375 447.109375 314.542969 Z M 447.109375 314.542969 " fill-opacity="1" fill-rule="nonzero"/><path fill="#000000" d="M 465.953125 394.914062 C 461.128906 395.914062 458.035156 400.636719 459.035156 405.457031 C 460.039062 410.277344 464.765625 413.371094 469.585938 412.371094 C 469.976562 412.289062 470.359375 412.226562 470.722656 412.191406 C 470.957031 412.167969 471.347656 412.15625 471.882812 412.15625 C 474.964844 412.15625 477.742188 413.382812 479.726562 415.367188 L 486.050781 409.082031 L 479.722656 415.402344 L 479.726562 415.402344 C 481.734375 417.410156 482.976562 420.183594 482.976562 423.242188 C 482.976562 428.179688 486.980469 432.183594 491.917969 432.183594 C 496.855469 432.183594 500.863281 428.179688 500.863281 423.242188 C 500.863281 415.246094 497.617188 408.003906 492.375 402.765625 L 492.371094 402.761719 L 492.355469 402.78125 C 487.09375 397.527344 479.847656 394.277344 471.882812 394.277344 C 471.03125 394.277344 470.039062 394.335938 468.90625 394.453125 C 467.898438 394.558594 466.910156 394.714844 465.953125 394.914062 Z M 465.953125 394.914062 " fill-opacity="1" fill-rule="nonzero"/><path fill="#000000" d="M 431.277344 441.867188 C 426.457031 442.867188 423.359375 447.589844 424.363281 452.410156 C 425.363281 457.230469 430.089844 460.324219 434.914062 459.324219 C 435.300781 459.242188 435.683594 459.179688 436.046875 459.144531 C 436.28125 459.121094 436.675781 459.109375 437.207031 459.109375 C 440.292969 459.109375 443.070312 460.335938 445.050781 462.320312 L 451.375 456.035156 L 445.050781 462.355469 C 447.058594 464.363281 448.300781 467.136719 448.300781 470.195312 C 448.300781 475.132812 452.308594 479.136719 457.246094 479.136719 C 462.183594 479.136719 466.1875 475.132812 466.1875 470.195312 C 466.1875 462.199219 462.941406 454.957031 457.703125 449.71875 L 457.703125 449.714844 L 457.699219 449.714844 L 457.683594 449.734375 C 452.421875 444.480469 445.175781 441.230469 437.207031 441.230469 C 436.359375 441.230469 435.367188 441.289062 434.230469 441.40625 C 433.226562 441.511719 432.238281 441.667969 431.277344 441.867188 Z M 431.277344 441.867188 " fill-opacity="1" fill-rule="nonzero"/><path fill="#000000" d="M 401.617188 395.425781 C 401.367188 400.339844 405.152344 404.53125 410.070312 404.78125 C 414.988281 405.03125 419.183594 401.25 419.433594 396.332031 C 419.453125 395.941406 419.492188 395.566406 419.546875 395.21875 C 419.589844 394.949219 419.675781 394.578125 419.804688 394.101562 C 420.601562 391.121094 422.511719 388.757812 424.949219 387.355469 C 427.402344 385.9375 430.421875 385.460938 433.410156 386.261719 C 438.175781 387.535156 443.070312 384.703125 444.34375 379.941406 C 445.617188 375.179688 442.785156 370.285156 438.023438 369.015625 C 430.324219 366.953125 422.5 368.214844 416.074219 371.921875 C 409.632812 375.636719 404.613281 381.792969 402.546875 389.492188 C 402.320312 390.347656 402.113281 391.332031 401.941406 392.425781 C 401.777344 393.433594 401.667969 394.441406 401.617188 395.425781 Z M 401.617188 395.425781 " fill-opacity="1" fill-rule="nonzero"/><path fill="#000000" d="M 288.335938 600.070312 C 288.335938 605.003906 292.339844 609.007812 297.277344 609.007812 C 302.214844 609.007812 306.222656 605.003906 306.222656 600.070312 C 306.222656 508.25 279.460938 480.53125 253.804688 453.957031 C 232.589844 431.988281 212.210938 410.878906 212.210938 345.496094 C 212.210938 296.902344 231.917969 252.90625 263.777344 221.0625 C 295.636719 189.214844 339.652344 169.519531 388.273438 169.519531 C 436.890625 169.519531 480.910156 189.21875 512.769531 221.0625 C 544.628906 252.90625 564.335938 296.902344 564.335938 345.496094 C 564.335938 410.878906 543.957031 431.988281 522.742188 453.957031 C 497.082031 480.53125 470.324219 508.246094 470.324219 600.070312 C 470.324219 605.003906 474.328125 609.007812 479.265625 609.007812 C 484.203125 609.007812 488.207031 605.003906 488.207031 600.070312 C 488.207031 515.394531 512.398438 490.339844 535.59375 466.316406 C 559.378906 441.6875 582.222656 418.027344 582.222656 345.496094 C 582.222656 291.96875 560.511719 243.496094 525.414062 208.421875 C 490.320312 173.34375 441.828125 151.640625 388.273438 151.640625 C 334.71875 151.640625 286.222656 173.34375 251.128906 208.421875 C 216.035156 243.496094 194.324219 291.96875 194.324219 345.496094 C 194.324219 418.023438 217.167969 441.6875 240.949219 466.316406 C 264.144531 490.339844 288.335938 515.390625 288.335938 600.070312 Z M 288.335938 600.070312 " fill-opacity="1" fill-rule="nonzero"/><path fill="#000000" d="M 300.234375 655.820312 C 305.171875 655.820312 309.179688 651.816406 309.179688 646.878906 C 309.179688 641.945312 305.171875 637.941406 300.234375 637.941406 C 296.265625 637.941406 292.648438 636.308594 290.019531 633.683594 C 287.394531 631.058594 285.761719 627.445312 285.761719 623.476562 L 285.761719 623.472656 C 285.761719 619.507812 287.394531 615.890625 290.019531 613.265625 C 292.648438 610.640625 296.265625 609.007812 300.234375 609.007812 L 476.308594 609.007812 C 480.277344 609.007812 483.898438 610.640625 486.523438 613.265625 C 489.152344 615.890625 490.78125 619.507812 490.78125 623.472656 L 490.78125 623.476562 C 490.78125 627.445312 489.152344 631.058594 486.523438 633.683594 C 483.898438 636.308594 480.277344 637.941406 476.308594 637.941406 C 471.371094 637.941406 467.367188 641.945312 467.367188 646.878906 C 467.367188 651.816406 471.371094 655.820312 476.308594 655.820312 C 485.214844 655.820312 493.308594 652.183594 499.171875 646.324219 C 505.03125 640.46875 508.667969 632.378906 508.667969 623.476562 L 508.667969 623.472656 C 508.667969 614.570312 505.03125 606.480469 499.171875 600.625 C 493.308594 594.765625 485.214844 591.132812 476.308594 591.132812 L 300.234375 591.132812 C 291.328125 591.132812 283.234375 594.765625 277.375 600.625 C 271.515625 606.480469 267.875 614.570312 267.875 623.472656 L 267.875 623.476562 C 267.875 632.378906 271.515625 640.46875 277.375 646.324219 C 283.234375 652.183594 291.328125 655.820312 300.234375 655.820312 Z M 300.234375 655.820312 " fill-opacity="1" fill-rule="nonzero"/><path fill="#000000" d="M 304.003906 702.628906 C 308.941406 702.628906 312.949219 698.628906 312.949219 693.691406 C 312.949219 688.753906 308.941406 684.753906 304.003906 684.753906 L 284.136719 684.753906 C 280.167969 684.753906 276.550781 683.121094 273.921875 680.496094 C 271.296875 677.871094 269.664062 674.253906 269.664062 670.285156 C 269.664062 666.316406 271.296875 662.699219 273.921875 660.074219 C 276.550781 657.449219 280.167969 655.816406 284.136719 655.816406 L 492.410156 655.816406 C 496.378906 655.816406 499.996094 657.449219 502.621094 660.074219 C 505.25 662.699219 506.882812 666.316406 506.882812 670.285156 C 506.882812 674.253906 505.246094 677.871094 502.621094 680.496094 L 502.261719 680.875 C 499.6875 683.277344 496.21875 684.753906 492.410156 684.753906 L 472.554688 684.753906 C 467.617188 684.753906 463.613281 688.753906 463.613281 693.691406 C 463.613281 698.625 467.617188 702.628906 472.554688 702.628906 L 492.410156 702.628906 C 500.996094 702.628906 508.851562 699.214844 514.675781 693.675781 C 514.878906 693.507812 515.074219 693.328125 515.269531 693.136719 C 521.125 687.28125 524.765625 679.1875 524.765625 670.285156 C 524.765625 661.378906 521.128906 653.292969 515.269531 647.433594 C 509.410156 641.578125 501.316406 637.941406 492.410156 637.941406 L 284.136719 637.941406 C 275.230469 637.941406 267.136719 641.578125 261.277344 647.433594 C 255.414062 653.292969 251.777344 661.378906 251.777344 670.285156 C 251.777344 679.1875 255.414062 687.277344 261.277344 693.136719 C 267.132812 698.992188 275.230469 702.628906 284.136719 702.628906 Z M 304.003906 702.628906 " fill-opacity="1" fill-rule="nonzero"/><path fill="#000000" d="M 304.714844 684.753906 L 471.828125 684.753906 C 480.738281 684.753906 488.828125 688.386719 494.691406 694.246094 C 500.550781 700.101562 504.1875 708.191406 504.1875 717.09375 C 504.1875 726 500.550781 734.089844 494.691406 739.945312 C 488.828125 745.804688 480.738281 749.441406 471.828125 749.441406 L 304.714844 749.441406 C 295.804688 749.441406 287.714844 745.804688 281.851562 739.945312 C 275.992188 734.089844 272.355469 726 272.355469 717.09375 C 272.355469 708.191406 275.992188 700.101562 281.851562 694.246094 C 287.714844 688.386719 295.804688 684.753906 304.714844 684.753906 Z M 471.828125 702.628906 L 304.714844 702.628906 C 300.746094 702.628906 297.125 704.261719 294.5 706.886719 C 291.875 709.511719 290.242188 713.128906 290.242188 717.09375 C 290.242188 721.0625 291.875 724.679688 294.5 727.304688 C 297.125 729.929688 300.746094 731.5625 304.714844 731.5625 L 471.828125 731.5625 C 475.800781 731.5625 479.417969 729.929688 482.042969 727.304688 C 484.671875 724.679688 486.300781 721.0625 486.300781 717.09375 C 486.300781 713.128906 484.671875 709.511719 482.042969 706.886719 C 479.417969 704.261719 475.800781 702.628906 471.828125 702.628906 Z M 471.828125 702.628906 " fill-opacity="1" fill-rule="nonzero"/><g clip-path="url(#9cea8c505c)"><path fill="#000000" d="M 444.507812 740.5 C 444.507812 735.566406 440.503906 731.5625 435.566406 731.5625 C 430.628906 731.5625 426.621094 735.566406 426.621094 740.5 L 426.621094 758.925781 C 426.621094 761.542969 425.566406 763.914062 423.863281 765.613281 L 430.152344 771.933594 L 423.832031 765.609375 L 423.492188 765.964844 C 421.820312 767.476562 419.589844 768.40625 417.136719 768.40625 L 359.402344 768.40625 C 356.808594 768.40625 354.433594 767.332031 352.710938 765.613281 C 350.992188 763.890625 349.917969 761.519531 349.917969 758.925781 L 349.917969 740.5 C 349.917969 735.566406 345.914062 731.5625 340.976562 731.5625 C 336.039062 731.5625 332.03125 735.566406 332.03125 740.5 L 332.03125 758.925781 C 332.03125 766.457031 335.113281 773.300781 340.066406 778.253906 C 345.019531 783.203125 351.867188 786.28125 359.402344 786.28125 L 417.136719 786.28125 C 424.351562 786.28125 430.953125 783.433594 435.871094 778.804688 C 436.078125 778.632812 436.28125 778.449219 436.472656 778.253906 L 436.457031 778.238281 L 436.457031 778.234375 L 436.476562 778.21875 C 441.433594 773.25 444.507812 766.414062 444.507812 758.925781 Z M 444.507812 740.5 " fill-opacity="1" fill-rule="nonzero"/></g><path fill="#000000" d="M 379.328125 600.070312 C 379.328125 605.003906 383.335938 609.007812 388.273438 609.007812 C 393.210938 609.007812 397.214844 605.003906 397.214844 600.070312 L 397.214844 471.300781 C 397.214844 466.367188 393.210938 462.363281 388.273438 462.363281 C 383.335938 462.363281 379.328125 466.367188 379.328125 471.300781 Z M 379.328125 600.070312 " fill-opacity="1" fill-rule="nonzero"/><g clip-path="url(#86695aa3b5)"><path fill="#000000" d="M 397.214844 32.457031 C 397.214844 27.523438 393.210938 23.519531 388.273438 23.519531 C 383.335938 23.519531 379.328125 27.523438 379.328125 32.457031 L 379.328125 88.324219 C 379.328125 93.257812 383.335938 97.261719 388.273438 97.261719 C 393.210938 97.261719 397.214844 93.257812 397.214844 88.324219 Z M 397.214844 32.457031 " fill-opacity="1" fill-rule="nonzero"/></g><path fill="#000000" d="M 561.976562 81.378906 C 564.445312 77.121094 562.992188 71.660156 558.730469 69.195312 C 554.46875 66.726562 549.007812 68.179688 546.539062 72.441406 L 518.589844 120.820312 C 516.125 125.082031 517.578125 130.539062 521.839844 133.007812 C 526.101562 135.472656 531.5625 134.019531 534.03125 129.761719 Z M 561.976562 81.378906 " fill-opacity="1" fill-rule="nonzero"/><path fill="#000000" d="M 680.238281 206.078125 C 684.5 203.609375 685.953125 198.152344 683.488281 193.890625 C 681.019531 189.632812 675.558594 188.179688 671.296875 190.644531 L 622.890625 218.578125 C 618.628906 221.046875 617.175781 226.503906 619.644531 230.765625 C 622.109375 235.023438 627.570312 236.476562 631.832031 234.011719 Z M 680.238281 206.078125 " fill-opacity="1" fill-rule="nonzero"/><g clip-path="url(#77ce554263)"><path fill="#000000" d="M 720.242188 373.203125 C 725.179688 373.203125 729.183594 369.203125 729.183594 364.265625 C 729.183594 359.332031 725.179688 355.328125 720.242188 355.328125 L 664.351562 355.328125 C 659.414062 355.328125 655.40625 359.332031 655.40625 364.265625 C 655.40625 369.203125 659.410156 373.203125 664.351562 373.203125 Z M 720.242188 373.203125 " fill-opacity="1" fill-rule="nonzero"/></g><g clip-path="url(#6409ebd397)"><path fill="#000000" d="M 56.304688 355.328125 C 51.367188 355.328125 47.359375 359.332031 47.359375 364.265625 C 47.359375 369.203125 51.367188 373.207031 56.304688 373.207031 L 112.195312 373.207031 C 117.132812 373.207031 121.136719 369.203125 121.136719 364.265625 C 121.136719 359.332031 117.132812 355.328125 112.195312 355.328125 Z M 56.304688 355.328125 " fill-opacity="1" fill-rule="nonzero"/></g><path fill="#000000" d="M 105.25 190.644531 C 100.988281 188.179688 95.527344 189.632812 93.058594 193.890625 C 90.589844 198.152344 92.042969 203.609375 96.304688 206.078125 L 144.710938 234.011719 C 148.972656 236.476562 154.433594 235.023438 156.902344 230.765625 C 159.371094 226.503906 157.914062 221.046875 153.652344 218.578125 Z M 105.25 190.644531 " fill-opacity="1" fill-rule="nonzero"/><path fill="#000000" d="M 230.007812 72.441406 C 227.539062 68.179688 222.078125 66.726562 217.816406 69.195312 C 213.554688 71.660156 212.097656 77.121094 214.566406 81.378906 L 242.515625 129.761719 C 244.980469 134.019531 250.441406 135.472656 254.707031 133.007812 C 258.96875 130.539062 260.421875 125.082031 257.953125 120.820312 Z M 230.007812 72.441406 " fill-opacity="1" fill-rule="nonzero"/><path fill="#000000" d="M 422.488281 223.917969 C 412.765625 223.917969 403.742188 227.019531 396.347656 232.285156 C 388.761719 237.691406 382.917969 245.371094 379.828125 254.320312 L 379.824219 254.316406 C 379.464844 255.355469 379.3125 256.414062 379.335938 257.453125 L 379.335938 471.304688 C 379.335938 473.050781 379.839844 474.679688 380.707031 476.058594 C 384.757812 483.484375 390.726562 489.710938 397.933594 494.058594 C 405.109375 498.390625 413.515625 500.886719 422.488281 500.886719 C 431.683594 500.886719 440.324219 498.222656 447.671875 493.628906 C 453.820312 489.78125 459.023438 484.582031 462.859375 478.453125 C 473.175781 476.554688 482.332031 471.328125 489.167969 463.9375 C 497.003906 455.460938 501.800781 444.128906 501.800781 431.691406 C 501.800781 430.277344 501.726562 428.800781 501.578125 427.28125 C 506.226562 423.472656 510.144531 418.800781 513.082031 413.503906 C 516.894531 406.640625 519.066406 398.78125 519.066406 390.464844 C 519.066406 384.703125 518.023438 379.15625 516.125 374.011719 C 515 370.964844 513.566406 368.0625 511.863281 365.335938 C 513.535156 362.640625 514.945312 359.761719 516.054688 356.742188 C 517.9375 351.613281 518.96875 346.089844 518.96875 340.359375 C 518.96875 334.199219 517.789062 328.296875 515.644531 322.882812 C 514.3125 319.519531 512.601562 316.335938 510.558594 313.386719 C 511.914062 310.945312 513.058594 308.375 513.964844 305.707031 C 515.601562 300.878906 516.492188 295.734375 516.492188 290.425781 C 516.492188 277.316406 511.167969 265.4375 502.554688 256.832031 L 496.234375 263.117188 L 502.558594 256.796875 L 502.386719 256.628906 C 493.792969 248.121094 481.960938 242.863281 468.910156 242.863281 C 466.046875 242.863281 463.238281 243.121094 460.511719 243.605469 L 460.800781 245.226562 L 460.796875 245.222656 L 460.507812 243.605469 C 460.28125 243.644531 460.058594 243.695312 459.835938 243.75 C 456.4375 238.742188 452.054688 234.457031 446.960938 231.160156 C 439.875 226.582031 431.46875 223.917969 422.488281 223.917969 Z M 406.6875 246.8125 C 411.121094 243.65625 416.574219 241.796875 422.488281 241.796875 C 427.964844 241.796875 433.035156 243.382812 437.25 246.105469 C 441.523438 248.871094 444.980469 252.808594 447.167969 257.46875 C 448.945312 261.988281 454.019531 264.273438 458.59375 262.578125 L 458.589844 262.566406 C 460.066406 262.023438 461.535156 261.597656 462.976562 261.300781 C 463.207031 261.277344 463.429688 261.246094 463.65625 261.203125 C 465.359375 260.902344 467.117188 260.742188 468.910156 260.742188 C 477.085938 260.742188 484.492188 264.042969 489.859375 269.386719 L 489.90625 269.433594 L 489.910156 269.433594 L 489.925781 269.417969 C 495.289062 274.785156 498.609375 282.214844 498.609375 290.425781 C 498.609375 293.808594 498.058594 297.023438 497.058594 299.980469 C 496.0625 302.902344 494.640625 305.609375 492.867188 308.015625 C 489.835938 311.433594 489.859375 316.660156 493.042969 320.054688 L 499.566406 313.9375 L 493.066406 320.050781 C 495.582031 322.730469 497.617188 325.914062 499.015625 329.445312 C 500.347656 332.8125 501.082031 336.496094 501.082031 340.359375 C 501.082031 343.984375 500.445312 347.433594 499.285156 350.597656 C 498.128906 353.746094 496.449219 356.648438 494.363281 359.1875 C 491.234375 362.46875 491.035156 367.648438 494.046875 371.167969 L 494.066406 371.152344 C 496.320312 373.78125 498.125 376.832031 499.355469 380.15625 C 500.535156 383.347656 501.179688 386.820312 501.179688 390.464844 C 501.179688 395.726562 499.84375 400.628906 497.503906 404.84375 C 495.128906 409.121094 491.714844 412.761719 487.601562 415.417969 C 484.214844 417.285156 482.3125 421.226562 483.195312 425.1875 L 483.230469 425.183594 C 483.414062 426.015625 483.570312 426.914062 483.691406 427.882812 L 483.734375 428.425781 L 483.75 428.421875 C 483.855469 429.394531 483.914062 430.488281 483.914062 431.691406 C 483.914062 439.480469 480.921875 446.566406 476.03125 451.855469 C 471.191406 457.09375 464.476562 460.582031 456.964844 461.261719 C 453.753906 461.367188 450.710938 463.199219 449.210938 466.285156 L 457.25 470.195312 L 449.21875 466.320312 C 446.761719 471.363281 442.9375 475.605469 438.238281 478.542969 C 433.722656 481.371094 428.324219 483.007812 422.488281 483.007812 C 416.863281 483.007812 411.613281 481.453125 407.15625 478.765625 C 403.113281 476.328125 399.703125 472.960938 397.222656 468.972656 L 397.222656 258.820312 C 399.183594 253.960938 402.496094 249.800781 406.6875 246.8125 Z M 406.6875 246.8125 " fill-opacity="1" fill-rule="nonzero"/></svg>