<svg xmlns="http://www.w3.org/2000/svg" xmlns:xlink="http://www.w3.org/1999/xlink" width="1080" zoomAndPan="magnify" viewBox="0 0 810 809.999993" height="1080" preserveAspectRatio="xMidYMid meet" version="1.0"><defs><clipPath id="513f76981f"><path d="M 21.933594 21.933594 L 788.433594 21.933594 L 788.433594 788.433594 L 21.933594 788.433594 Z M 21.933594 21.933594 " clip-rule="nonzero"/></clipPath></defs><g clip-path="url(#513f76981f)"><path fill="#000000" d="M 405.183594 21.933594 C 193.824219 21.933594 21.933594 193.824219 21.933594 405.183594 C 21.933594 616.542969 193.824219 788.433594 405.183594 788.433594 C 616.542969 788.433594 788.433594 616.542969 788.433594 405.183594 C 788.433594 193.824219 616.542969 21.933594 405.183594 21.933594 Z M 405.183594 761.546875 C 208.410156 761.546875 48.816406 601.957031 48.816406 405.183594 C 48.816406 208.410156 208.410156 48.816406 405.183594 48.816406 C 601.957031 48.816406 761.546875 208.410156 761.546875 405.183594 C 761.546875 601.957031 601.957031 761.546875 405.183594 761.546875 Z M 405.183594 761.546875 " fill-opacity="1" fill-rule="nonzero"/></g><path fill="#000000" d="M 418.054688 637.136719 L 392.695312 637.136719 L 388.785156 636.371094 C 379.824219 635.226562 370.765625 634.5625 361.902344 632.84375 C 302.601562 621.117188 254.265625 591.089844 218.800781 542.371094 C 173.992188 480.6875 161.789062 412.238281 183.242188 339.117188 C 213.75 234.722656 312.324219 166.75 420.816406 173.707031 C 471.25 177.042969 515.964844 195.0625 554.480469 227.667969 C 597.570312 264.085938 624.074219 310.195312 633.988281 366 C 635.417969 374.390625 636.277344 382.96875 637.421875 391.453125 L 637.421875 418.625 L 636.5625 423.488281 C 635.515625 431.78125 634.847656 440.265625 633.226562 448.5625 C 622.738281 502.140625 596.425781 546.660156 554.957031 582.125 C 547.164062 588.816406 538.957031 594.949219 530.328125 600.515625 C 521.703125 606.085938 512.734375 611.042969 503.429688 615.382812 C 494.125 619.726562 484.566406 623.414062 474.753906 626.449219 C 464.945312 629.488281 454.976562 631.839844 444.84375 633.511719 C 435.976562 635.039062 427.015625 635.894531 418.054688 637.136719 Z M 307.082031 293.542969 L 243.589844 262.273438 C 210.410156 300.3125 192.203125 345.21875 189.628906 396.699219 L 285.632812 396.699219 C 286.128906 379.007812 288.175781 361.496094 291.78125 344.167969 C 295.382812 326.84375 300.484375 309.96875 307.082031 293.542969 Z M 567.253906 262.273438 L 503.664062 293.542969 C 516.917969 326.054688 523.972656 360.660156 525.210938 396.699219 L 621.117188 396.699219 C 618.542969 345.21875 600.429688 300.3125 567.253906 262.273438 Z M 285.632812 413.476562 L 189.628906 413.476562 C 192.109375 462.671875 208.792969 505.953125 240.15625 543.898438 C 260.40625 530.230469 282.015625 519.234375 304.984375 510.910156 C 299.066406 495.324219 294.484375 479.355469 291.238281 463.003906 C 287.988281 446.648438 286.121094 430.140625 285.632812 413.476562 Z M 571.640625 542.753906 C 602.050781 505.761719 618.832031 462.480469 621.117188 413.476562 L 526.164062 413.476562 C 523.972656 430.351562 522.542969 446.941406 519.394531 463.148438 C 516.25 479.355469 511.101562 494.988281 507.191406 509.863281 Z M 323.003906 297.167969 C 316.414062 312.957031 311.335938 329.214844 307.761719 345.949219 C 304.1875 362.679688 302.179688 379.59375 301.742188 396.699219 L 397.078125 396.699219 L 397.078125 308.609375 C 371.902344 307.9375 347.210938 304.125 323.003906 297.167969 Z M 487.742188 297.167969 C 463.148438 304.316406 438.644531 307.75 413.667969 308.796875 L 413.667969 396.699219 L 509.003906 396.699219 C 508.585938 379.59375 506.589844 362.675781 503.015625 345.941406 C 499.441406 329.207031 494.351562 312.949219 487.742188 297.167969 Z M 413.667969 413.382812 L 413.667969 493.464844 C 439.777344 494.214844 465.359375 498.28125 490.414062 505.667969 C 500.898438 482.308594 511.003906 430.445312 508.433594 413.382812 Z M 396.984375 492.890625 L 396.984375 413.382812 L 301.742188 413.382812 C 302.144531 429.089844 303.871094 444.652344 306.929688 460.0625 C 309.984375 475.476562 314.328125 490.519531 319.953125 505.191406 C 333.109375 502.425781 345.597656 499.183594 358.183594 497.183594 C 370.765625 495.179688 383.921875 494.320312 396.984375 492.890625 Z M 251.121094 555.910156 C 285.917969 590.800781 327.292969 611.871094 377.152344 619.117188 C 363.253906 605.804688 350.746094 591.289062 339.636719 575.574219 C 328.523438 559.859375 319.007812 543.230469 311.085938 525.6875 C 289.863281 533.316406 269.875 543.390625 251.121094 555.910156 Z M 433.6875 619.117188 C 483.453125 611.871094 524.925781 590.898438 559.722656 555.910156 C 540.976562 543.324219 520.957031 533.28125 499.660156 525.78125 C 491.765625 543.3125 482.269531 559.929688 471.171875 575.628906 C 460.074219 591.328125 447.578125 605.824219 433.6875 619.117188 Z M 484.3125 520.730469 C 461.320312 513.886719 437.835938 510.136719 413.859375 509.480469 L 413.859375 615.492188 C 421.328125 608.960938 428.429688 602.046875 435.164062 594.757812 C 441.898438 587.464844 448.226562 579.839844 454.144531 571.875 C 460.066406 563.910156 465.550781 555.652344 470.589844 547.105469 C 475.632812 538.558594 480.207031 529.765625 484.3125 520.730469 Z M 326.4375 520.730469 C 330.554688 529.769531 335.144531 538.5625 340.203125 547.113281 C 345.261719 555.664062 350.757812 563.921875 356.695312 571.886719 C 362.632812 579.851562 368.976562 587.476562 375.726562 594.765625 C 382.476562 602.054688 389.59375 608.964844 397.078125 615.492188 L 397.078125 509.480469 C 373.046875 510.183594 349.5 513.933594 326.4375 520.730469 Z M 312.992188 277.148438 C 322.71875 261.605469 331.296875 246.164062 341.59375 231.957031 C 351.890625 217.753906 364.09375 204.597656 375.34375 191.25 C 329.773438 197.859375 289.953125 217.246094 255.886719 249.40625 C 273.84375 260.871094 292.878906 270.117188 312.992188 277.148438 Z M 433.6875 190.964844 C 460.191406 216.703125 480.976562 245.113281 496.515625 277.242188 C 509.195312 274.285156 541.609375 258.746094 554.765625 249.308594 C 520.921875 217.371094 481.164062 197.921875 433.6875 190.964844 Z M 397.078125 194.492188 C 368.480469 219.753906 346.265625 248.640625 329.867188 282.199219 C 345.980469 287.824219 387.449219 293.832031 397.078125 292.019531 Z M 481.070312 282.296875 C 472.882812 265.570312 463.113281 249.824219 451.769531 235.058594 C 440.421875 220.296875 427.722656 206.804688 413.667969 194.585938 L 413.667969 292.6875 C 436.5625 291.992188 459.03125 288.527344 481.070312 282.296875 Z M 481.070312 282.296875 " fill-opacity="1" fill-rule="nonzero"/></svg>