<svg xmlns="http://www.w3.org/2000/svg" xmlns:xlink="http://www.w3.org/1999/xlink" width="1080" zoomAndPan="magnify" viewBox="0 0 810 809.999993" height="1080" preserveAspectRatio="xMidYMid meet" version="1.0"><defs><clipPath id="7132c2b3b1"><path d="M 23 26 L 788 26 L 788 790.617188 L 23 790.617188 Z M 23 26 " clip-rule="nonzero"/></clipPath></defs><g clip-path="url(#7132c2b3b1)"><path fill="#241d19" d="M 650.90625 790.8125 L 649.945312 790.8125 C 519.410156 786.640625 366.050781 659.652344 260.296875 553.867188 C 154.527344 448.082031 27.566406 294.691406 23.441406 164.675781 C 22.035156 120.695312 133.613281 39.125 134.746094 38.328125 C 159.617188 20.996094 193.046875 24.28125 206.652344 43.097656 C 215.566406 55.4375 300.835938 184.71875 310.160156 199.4375 C 319.378906 213.945312 317.925781 235.777344 306.277344 257.851562 C 299.539062 270.691406 276.699219 310.820312 266.761719 328.246094 C 277.28125 343.472656 306.769531 382.742188 369.09375 445.070312 C 431.785156 507.746094 470.765625 537.003906 485.898438 547.460938 C 503.34375 537.507812 543.484375 514.65625 556.359375 507.882812 C 577.699219 496.617188 599.910156 494.980469 614.492188 503.878906 C 629.8125 513.25 758.785156 599.007812 770.832031 607.414062 C 780.296875 614.050781 786.410156 625.484375 787.585938 638.832031 C 788.796875 652.453125 784.605469 666.882812 775.785156 679.480469 C 774.976562 680.578125 694.414062 790.8125 650.90625 790.8125 Z M 650.90625 790.8125 " fill-opacity="1" fill-rule="nonzero"/></g></svg>