<svg xmlns="http://www.w3.org/2000/svg" xmlns:xlink="http://www.w3.org/1999/xlink" width="1080" zoomAndPan="magnify" viewBox="0 0 810 809.999993" height="1080" preserveAspectRatio="xMidYMid meet" version="1.0"><defs><g/></defs><path fill="#000000" d="M 376.605469 54.867188 C 279.441406 65.628906 200.269531 143.984375 188.542969 240.9375 C 188.164062 243.980469 187.851562 247.03125 187.605469 250.089844 C 187.355469 253.144531 187.171875 256.207031 187.054688 259.273438 C 186.9375 262.335938 186.886719 265.402344 186.902344 268.46875 C 186.917969 271.535156 186.996094 274.601562 187.144531 277.664062 C 187.289062 280.730469 187.5 283.789062 187.777344 286.84375 C 188.054688 289.898438 188.398438 292.945312 188.804688 295.984375 C 189.210938 299.023438 189.6875 302.054688 190.222656 305.074219 C 190.761719 308.09375 191.363281 311.101562 192.03125 314.09375 C 192.695312 317.089844 193.425781 320.066406 194.222656 323.03125 C 195.015625 325.992188 195.875 328.9375 196.792969 331.863281 C 197.714844 334.789062 198.699219 337.695312 199.742188 340.578125 C 200.789062 343.460938 201.894531 346.320312 203.0625 349.15625 C 204.230469 351.992188 205.457031 354.804688 206.746094 357.589844 C 208.035156 360.371094 209.382812 363.125 210.789062 365.851562 C 212.195312 368.578125 213.660156 371.273438 215.179688 373.9375 C 216.703125 376.601562 218.28125 379.230469 219.917969 381.824219 C 221.550781 384.421875 223.242188 386.980469 224.984375 389.503906 C 226.730469 392.027344 228.527344 394.511719 230.378906 396.960938 C 232.230469 399.40625 234.132812 401.8125 236.085938 404.175781 C 238.042969 406.539062 240.046875 408.863281 242.097656 411.140625 C 244.152344 413.421875 246.253906 415.65625 248.40625 417.84375 C 250.554688 420.03125 252.75 422.175781 254.992188 424.269531 C 257.234375 426.363281 259.519531 428.410156 261.847656 430.410156 C 264.175781 432.40625 266.546875 434.351562 268.960938 436.246094 C 271.371094 438.144531 273.824219 439.984375 276.316406 441.777344 C 278.808594 443.566406 281.335938 445.304688 283.902344 446.984375 C 286.46875 448.667969 289.070312 450.292969 291.707031 451.863281 C 294.34375 453.4375 297.011719 454.949219 299.710938 456.40625 C 302.414062 457.863281 305.144531 459.261719 307.902344 460.601562 C 310.664062 461.941406 313.453125 463.21875 316.269531 464.441406 C 319.085938 465.660156 321.925781 466.820312 324.789062 467.917969 C 327.65625 469.015625 330.542969 470.054688 333.453125 471.027344 C 344.175781 472.742188 347.605469 466.101562 347.605469 460.324219 L 347.605469 424.128906 C 288.253906 437.011719 275.621094 395.449219 275.621094 395.449219 C 265.792969 370.601562 251.839844 363.964844 251.839844 363.964844 C 232.332031 350.683594 253.355469 351.125 253.355469 351.125 C 274.769531 352.640625 286.132812 373.179688 286.132812 373.179688 C 304.773438 405.726562 336.257812 396.085938 348.46875 390.945312 C 350.394531 377.03125 356.050781 367.601562 361.96875 362.25 C 314.328125 356.898438 264.472656 338.480469 264.472656 256.914062 C 264.472656 233.144531 272.617188 214.09375 286.539062 198.886719 C 284.402344 193.535156 276.894531 171.269531 288.679688 142.363281 C 288.679688 142.363281 306.683594 136.570312 347.605469 164.207031 C 356.335938 161.855469 365.183594 160.089844 374.148438 158.902344 C 383.113281 157.71875 392.117188 157.125 401.160156 157.125 C 410.203125 157.125 419.207031 157.71875 428.171875 158.902344 C 437.136719 160.089844 445.984375 161.855469 454.714844 164.207031 C 495.667969 136.570312 513.640625 142.363281 513.640625 142.363281 C 525.410156 171.269531 517.917969 193.535156 515.78125 198.886719 C 529.703125 214.046875 537.847656 233.144531 537.847656 256.914062 C 537.847656 338.695312 487.703125 356.6875 439.941406 362.039062 C 447.648438 368.679688 454.714844 381.746094 454.714844 401.648438 L 454.714844 460.324219 C 454.714844 466.101562 458.144531 472.953125 469.078125 471.027344 C 472.183594 469.988281 475.265625 468.875 478.320312 467.695312 C 481.375 466.515625 484.402344 465.265625 487.398438 463.945312 C 490.394531 462.625 493.363281 461.238281 496.296875 459.78125 C 499.230469 458.328125 502.128906 456.804688 504.992188 455.214844 C 507.855469 453.628906 510.683594 451.976562 513.46875 450.257812 C 516.257812 448.539062 519.007812 446.757812 521.714844 444.914062 C 524.417969 443.070312 527.082031 441.167969 529.703125 439.203125 C 532.320312 437.238281 534.894531 435.210938 537.421875 433.128906 C 539.945312 431.046875 542.425781 428.90625 544.851562 426.707031 C 547.28125 424.511719 549.65625 422.261719 551.984375 419.957031 C 554.308594 417.648438 556.578125 415.292969 558.796875 412.882812 C 561.015625 410.472656 563.175781 408.015625 565.277344 405.503906 C 567.382812 402.996094 569.429688 400.441406 571.417969 397.839844 C 573.402344 395.238281 575.328125 392.589844 577.195312 389.902344 C 579.0625 387.210938 580.863281 384.476562 582.605469 381.707031 C 584.347656 378.933594 586.023438 376.121094 587.632812 373.269531 C 589.246094 370.421875 590.792969 367.535156 592.269531 364.617188 C 593.75 361.695312 595.160156 358.742188 596.507812 355.757812 C 597.851562 352.773438 599.125 349.757812 600.332031 346.714844 C 601.535156 343.671875 602.671875 340.601562 603.738281 337.503906 C 604.804688 334.410156 605.796875 331.292969 606.71875 328.148438 C 607.640625 325.007812 608.492188 321.847656 609.269531 318.667969 C 610.046875 315.488281 610.75 312.292969 611.378906 309.082031 C 612.011719 305.867188 612.566406 302.644531 613.050781 299.40625 C 613.53125 296.167969 613.941406 292.921875 614.277344 289.664062 C 614.609375 286.40625 614.867188 283.144531 615.054688 279.878906 C 615.238281 276.609375 615.347656 273.335938 615.382812 270.066406 C 615.417969 266.792969 615.375 263.519531 615.261719 260.246094 C 615.144531 256.976562 614.953125 253.707031 614.6875 250.445312 C 614.421875 247.183594 614.082031 243.929688 613.667969 240.679688 C 613.253906 237.433594 612.765625 234.199219 612.203125 230.972656 C 611.640625 227.75 611.003906 224.539062 610.292969 221.34375 C 609.582031 218.148438 608.800781 214.96875 607.945312 211.808594 C 607.089844 208.648438 606.160156 205.511719 605.160156 202.394531 C 604.160156 199.277344 603.089844 196.183594 601.949219 193.117188 C 600.808594 190.046875 599.597656 187.007812 598.316406 183.992188 C 597.035156 180.980469 595.6875 178 594.269531 175.046875 C 592.851562 172.097656 591.367188 169.179688 589.816406 166.296875 C 588.261719 163.414062 586.648438 160.566406 584.964844 157.757812 C 583.28125 154.949219 581.539062 152.179688 579.730469 149.453125 C 577.921875 146.722656 576.050781 144.035156 574.117188 141.394531 C 572.1875 138.75 570.195312 136.152344 568.144531 133.597656 C 566.09375 131.046875 563.984375 128.542969 561.816406 126.085938 C 559.652344 123.632812 557.429688 121.226562 555.15625 118.871094 C 552.878906 116.519531 550.550781 114.21875 548.167969 111.972656 C 545.789062 109.722656 543.355469 107.53125 540.875 105.394531 C 538.390625 103.261719 535.863281 101.183594 533.285156 99.160156 C 530.707031 97.140625 528.085938 95.179688 525.417969 93.28125 C 522.75 91.382812 520.039062 89.542969 517.289062 87.765625 C 514.539062 85.992188 511.746094 84.28125 508.917969 82.632812 C 506.085938 80.984375 503.222656 79.402344 500.320312 77.882812 C 497.417969 76.367188 494.480469 74.917969 491.511719 73.535156 C 488.542969 72.152344 485.542969 70.839844 482.515625 69.59375 C 479.484375 68.347656 476.429688 67.171875 473.34375 66.066406 C 470.261719 64.960938 467.15625 63.929688 464.023438 62.964844 C 460.894531 62.003906 457.742188 61.113281 454.574219 60.292969 C 451.402344 59.472656 448.210938 58.730469 445.007812 58.054688 C 441.800781 57.382812 438.582031 56.785156 435.347656 56.257812 C 432.117188 55.734375 428.875 55.28125 425.621094 54.90625 C 422.367188 54.53125 419.105469 54.226562 415.835938 54 C 412.570312 53.773438 409.300781 53.621094 406.023438 53.542969 C 402.75 53.464844 399.476562 53.460938 396.199219 53.535156 C 392.925781 53.609375 389.65625 53.753906 386.386719 53.976562 C 383.121094 54.199219 379.859375 54.496094 376.605469 54.867188 Z M 376.605469 54.867188 " fill-opacity="1" fill-rule="nonzero"/><g fill="#241d19" fill-opacity="1"><g transform="translate(89.845926, 722.924287)"><g><path d="M 71.828125 1.96875 C 60.367188 1.96875 50.265625 -0.644531 41.515625 -5.875 C 32.765625 -11.113281 25.929688 -18.992188 21.015625 -29.515625 C 16.097656 -40.035156 13.640625 -52.957031 13.640625 -68.28125 C 13.640625 -83.601562 16.269531 -96.523438 21.53125 -107.046875 C 26.789062 -117.566406 34.085938 -125.441406 43.421875 -130.671875 C 52.765625 -135.898438 63.539062 -138.515625 75.75 -138.515625 C 88.832031 -138.515625 99.578125 -136.164062 107.984375 -131.46875 C 116.390625 -126.769531 122.332031 -119.75 125.8125 -110.40625 L 115.359375 -104.234375 L 113.015625 -104.234375 C 109.472656 -111.335938 104.679688 -116.429688 98.640625 -119.515625 C 92.597656 -122.597656 84.96875 -124.140625 75.75 -124.140625 C 45.800781 -124.140625 30.828125 -105.519531 30.828125 -68.28125 C 30.828125 -48.914062 34.59375 -34.78125 42.125 -25.875 C 49.65625 -16.96875 60.210938 -12.515625 73.796875 -12.515625 C 86.242188 -12.515625 95.566406 -15.347656 101.765625 -21.015625 C 107.960938 -26.679688 111.0625 -35.617188 111.0625 -47.828125 L 111.0625 -59.875 L 72.203125 -59.875 L 72.203125 -72.765625 L 126.65625 -72.765625 L 126.65625 0 L 111.8125 0 L 111.8125 -18.3125 L 109.84375 -18.78125 C 106.226562 -11.738281 101.195312 -6.519531 94.75 -3.125 C 88.3125 0.269531 80.671875 1.96875 71.828125 1.96875 Z M 71.828125 1.96875 "/></g></g><g transform="translate(231.829641, 722.924287)"><g><path d="M 25.59375 -122.921875 C 22.351562 -122.921875 19.722656 -123.929688 17.703125 -125.953125 C 15.679688 -127.984375 14.671875 -130.554688 14.671875 -133.671875 C 14.671875 -136.773438 15.679688 -139.335938 17.703125 -141.359375 C 19.722656 -143.390625 22.351562 -144.40625 25.59375 -144.40625 C 28.832031 -144.40625 31.460938 -143.390625 33.484375 -141.359375 C 35.503906 -139.335938 36.515625 -136.773438 36.515625 -133.671875 C 36.515625 -130.554688 35.503906 -127.984375 33.484375 -125.953125 C 31.460938 -123.929688 28.832031 -122.921875 25.59375 -122.921875 Z M 17.9375 0 L 17.9375 -103.03125 L 33.15625 -103.03125 L 33.15625 0 Z M 17.9375 0 "/></g></g><g transform="translate(282.925095, 722.924287)"><g><path d="M 69.6875 -16.34375 L 74.53125 -5.421875 C 72.101562 -2.992188 68.910156 -1.15625 64.953125 0.09375 C 61.003906 1.34375 56.726562 1.96875 52.125 1.96875 C 32.445312 1.96875 22.609375 -7.992188 22.609375 -27.921875 L 22.609375 -90.609375 L 4.671875 -90.609375 L 4.671875 -103.125 L 22.609375 -103.125 L 22.609375 -124.890625 L 37.828125 -127.40625 L 37.828125 -103.125 L 70.984375 -103.125 L 70.984375 -90.609375 L 37.828125 -90.609375 L 37.828125 -29.421875 C 37.828125 -17.585938 42.960938 -11.671875 53.234375 -11.671875 C 58.835938 -11.671875 63.664062 -13.226562 67.71875 -16.34375 Z M 69.6875 -16.34375 "/></g></g><g transform="translate(361.38978, 722.924287)"><g><path d="M 17.9375 0 L 17.9375 -144.40625 L 33.15625 -144.40625 L 33.15625 -88.359375 L 35.125 -87.984375 C 42.46875 -99.316406 53.082031 -104.984375 66.96875 -104.984375 C 79.363281 -104.984375 88.347656 -101.820312 93.921875 -95.5 C 99.492188 -89.1875 102.28125 -79.457031 102.28125 -66.3125 L 102.28125 0 L 87.0625 0 L 87.0625 -65.9375 C 87.0625 -72.164062 86.265625 -77.164062 84.671875 -80.9375 C 83.085938 -84.707031 80.628906 -87.445312 77.296875 -89.15625 C 73.960938 -90.863281 69.585938 -91.71875 64.171875 -91.71875 C 54.828125 -91.71875 47.320312 -88.695312 41.65625 -82.65625 C 35.988281 -76.625 33.15625 -66.695312 33.15625 -52.875 L 33.15625 0 Z M 17.9375 0 "/></g></g><g transform="translate(480.02091, 722.924287)"><g><path d="M 50.90625 1.96875 C 39.257812 1.96875 30.585938 -1.113281 24.890625 -7.28125 C 19.191406 -13.445312 16.34375 -22.476562 16.34375 -34.375 L 16.34375 -103.03125 L 31.578125 -103.03125 L 31.578125 -34.75 C 31.578125 -19.113281 38.921875 -11.296875 53.609375 -11.296875 C 62.953125 -11.296875 70.332031 -14.347656 75.75 -20.453125 C 81.164062 -26.554688 83.875 -36.457031 83.875 -50.15625 L 83.875 -103.03125 L 99.109375 -103.03125 L 99.109375 0 L 84.71875 0 L 84.71875 -16.15625 L 82.765625 -16.625 C 79.210938 -10.332031 74.957031 -5.660156 70 -2.609375 C 65.050781 0.441406 58.6875 1.96875 50.90625 1.96875 Z M 50.90625 1.96875 "/></g></g><g transform="translate(597.064065, 722.924287)"><g><path d="M 68.46875 1.96875 C 60.8125 1.96875 54.164062 0.488281 48.53125 -2.46875 C 42.894531 -5.425781 38.425781 -9.335938 35.125 -14.203125 L 33.15625 -13.828125 L 33.15625 0 L 17.9375 0 L 17.9375 -144.40625 L 33.15625 -144.40625 L 33.15625 -87.609375 L 35.125 -87.234375 C 42.96875 -99.066406 54.363281 -104.984375 69.3125 -104.984375 C 77.78125 -104.984375 85.1875 -103.019531 91.53125 -99.09375 C 97.882812 -95.175781 102.820312 -89.21875 106.34375 -81.21875 C 109.863281 -73.21875 111.625 -63.300781 111.625 -51.46875 C 111.625 -39.757812 109.769531 -29.90625 106.0625 -21.90625 C 102.351562 -13.90625 97.257812 -7.925781 90.78125 -3.96875 C 84.3125 -0.0078125 76.875 1.96875 68.46875 1.96875 Z M 64.828125 -11.671875 C 85.378906 -11.671875 95.65625 -24.9375 95.65625 -51.46875 C 95.65625 -65.226562 92.972656 -75.316406 87.609375 -81.734375 C 82.253906 -88.148438 74.660156 -91.359375 64.828125 -91.359375 C 55.171875 -91.359375 47.476562 -88.070312 41.75 -81.5 C 36.019531 -74.925781 33.15625 -64.914062 33.15625 -51.46875 C 33.15625 -38.082031 36.019531 -28.101562 41.75 -21.53125 C 47.476562 -14.957031 55.171875 -11.671875 64.828125 -11.671875 Z M 64.828125 -11.671875 "/></g></g></g></svg>